<?xml version="1.0" encoding="utf-8"?>
<!-- Generator: Adobe Illustrator 26.3.1, SVG Export Plug-In . SVG Version: 6.00 Build 0)  -->
<svg version="1.1" id="Calque_1" xmlns="http://www.w3.org/2000/svg" xmlns:xlink="http://www.w3.org/1999/xlink" x="0px" y="0px"
	 viewBox="0 0 21.5 13.5" style="enable-background:new 0 0 21.5 13.5;" xml:space="preserve">
<style type="text/css">
	.st0{fill:#6C24B1;}
</style>
<path class="st0" d="M18.8,13.5h-16c-1.5,0-2.8-1.2-2.8-2.8v-8C0,1.2,1.2,0,2.8,0h16c1.5,0,2.8,1.2,2.8,2.8v8
	C21.5,12.3,20.3,13.5,18.8,13.5z M2.8,1.5c-0.7,0-1.2,0.6-1.2,1.2v8c0,0.7,0.6,1.2,1.2,1.2h16c0.7,0,1.2-0.6,1.2-1.2v-8
	c0-0.7-0.6-1.2-1.2-1.2H2.8z"/>
<path class="st0" d="M6.8,9.5C6.3,9.5,6,9.2,6,8.8V7.5H4.8C4.3,7.5,4,7.2,4,6.8S4.3,6,4.8,6H6V4.8C6,4.3,6.3,4,6.8,4
	s0.8,0.3,0.8,0.8V6h1.2c0.4,0,0.8,0.3,0.8,0.8S9.2,7.5,8.8,7.5H7.5v1.2C7.5,9.2,7.2,9.5,6.8,9.5z"/>
<path class="st0" d="M13.8,6.5c-0.4,0-0.8-0.3-0.8-0.8S13.3,5,13.8,5s0.8,0.3,0.8,0.7v0C14.5,6.2,14.2,6.5,13.8,6.5z"/>
<path class="st0" d="M16.8,8.5c-0.4,0-0.8-0.3-0.8-0.8S16.3,7,16.8,7s0.8,0.3,0.8,0.7v0C17.5,8.2,17.2,8.5,16.8,8.5z"/>
</svg>
